<svg xmlns="http://www.w3.org/2000/svg" width="40.009" height="40" viewBox="0 0 40.009 40"><path d="M20,11.982A10.255,10.255,0,1,0,30.259,22.238,10.239,10.239,0,0,0,20,11.982Zm0,16.923a6.667,6.667,0,1,1,6.667-6.667A6.68,6.68,0,0,1,20,28.905ZM33.071,11.563a2.392,2.392,0,1,1-2.392-2.392A2.387,2.387,0,0,1,33.071,11.563Zm6.792,2.428c-.152-3.2-.884-6.043-3.231-8.381s-5.177-3.07-8.381-3.231c-3.3-.187-13.2-.187-16.5,0-3.2.152-6.034.884-8.381,3.222S.3,10.777.135,13.982c-.187,3.3-.187,13.2,0,16.5.152,3.2.884,6.043,3.231,8.381s5.177,3.07,8.381,3.231c3.3.187,13.2.187,16.5,0,3.2-.152,6.043-.884,8.381-3.231s3.07-5.177,3.231-8.381c.187-3.3.187-13.192,0-16.494ZM35.6,34.028a6.75,6.75,0,0,1-3.8,3.8c-2.633,1.044-8.881.8-11.791.8s-9.167.232-11.791-.8a6.75,6.75,0,0,1-3.8-3.8c-1.044-2.633-.8-8.881-.8-11.791s-.232-9.167.8-11.791a6.75,6.75,0,0,1,3.8-3.8c2.633-1.044,8.881-.8,11.791-.8s9.167-.232,11.791.8a6.75,6.75,0,0,1,3.8,3.8c1.044,2.633.8,8.881.8,11.791S36.641,31.4,35.6,34.028Z" transform="translate(0.005 -2.238)" fill="#eee"/></svg>